<svg width="388" height="375" viewBox="0 0 388 375" fill="none" xmlns="http://www.w3.org/2000/svg">
<g clip-path="url(#clip0_11_25)">
<path d="M135.022 206.502V375C27.0044 335.721 0 254.485 0 189.764C0 29.0772 140.601 1.17963 188.584 0.0637492C226.971 -0.828956 252.934 7.87492 261.117 12.3384C206.438 67.0166 91.9487 181.729 71.4164 203.154C64.721 225.472 81.4592 231.052 92.6182 226.588L278.971 39.1196C303.52 63.297 357.306 116.562 376.053 136.201L387.211 170.794L278.971 64.7854L135.022 206.502Z" fill="#0EB50D"/>
<g clip-path="url(#clip1_11_25)">
<path d="M191.932 364.17V203.155H226.904V266.998H298.258V203.155H333.231V364.17H298.258V296.572H226.904V364.17H191.932Z" fill="#0EB50D"/>
<path d="M404.093 366.987C390.636 366.987 379.214 364.718 369.825 360.18C360.436 355.486 353.316 348.366 348.466 338.821C343.615 329.119 341.189 316.992 341.189 302.44C341.189 287.574 343.615 275.447 348.466 266.059C353.316 256.514 360.436 249.472 369.825 244.934C379.214 240.24 390.636 237.893 404.093 237.893C417.864 237.893 429.365 240.24 438.597 244.934C447.985 249.472 455.105 256.514 459.956 266.059C464.807 275.447 467.232 287.574 467.232 302.44C467.232 316.992 464.807 329.119 459.956 338.821C455.105 348.366 447.985 355.486 438.597 360.18C429.365 364.718 417.864 366.987 404.093 366.987ZM404.093 341.637C411.291 341.637 417.003 340.307 421.228 337.647C425.609 334.987 428.817 330.919 430.851 325.442C432.885 319.965 433.903 313.237 433.903 305.256V299.623C433.903 291.643 432.885 284.914 430.851 279.438C428.817 273.961 425.609 269.892 421.228 267.232C417.003 264.416 411.291 263.007 404.093 263.007C397.052 263.007 391.341 264.416 386.959 267.232C382.734 269.892 379.605 273.961 377.571 279.438C375.536 284.914 374.519 291.643 374.519 299.623V305.256C374.519 313.237 375.536 319.965 377.571 325.442C379.605 330.919 382.734 334.987 386.959 337.647C391.341 340.307 397.052 341.637 404.093 341.637Z" fill="#0EB50D"/>
<path d="M472.462 364.17V240.709H499.454L502.036 257.609H503.679C506.339 253.541 509.469 250.02 513.068 247.047C516.823 244.074 520.97 241.805 525.508 240.24C530.202 238.675 535.21 237.893 540.53 237.893C548.354 237.893 555.082 239.458 560.715 242.587C566.505 245.717 570.965 250.724 574.094 257.609H575.737C578.397 253.541 581.605 250.02 585.361 247.047C589.116 244.074 593.419 241.805 598.27 240.24C603.121 238.675 608.285 237.893 613.761 237.893C621.585 237.893 628.314 239.301 633.947 242.118C639.737 244.934 644.275 249.55 647.561 255.966C650.847 262.225 652.49 270.362 652.49 280.376V364.17H619.864V286.244C619.864 282.332 619.395 279.046 618.456 276.386C617.673 273.57 616.5 271.379 614.935 269.814C613.37 268.093 611.414 266.841 609.067 266.059C606.72 265.276 604.216 264.885 601.556 264.885C597.175 264.885 593.263 266.059 589.82 268.406C586.378 270.753 583.639 273.961 581.605 278.029C579.727 282.098 578.789 286.792 578.789 292.112V364.17H546.163V286.244C546.163 282.332 545.694 279.046 544.755 276.386C543.972 273.57 542.799 271.379 541.234 269.814C539.669 268.093 537.713 266.841 535.366 266.059C533.175 265.276 530.672 264.885 527.855 264.885C523.63 264.885 519.718 266.059 516.119 268.406C512.677 270.753 509.938 273.961 507.904 278.029C506.026 282.098 505.088 286.792 505.088 292.112V364.17H472.462Z" fill="#0EB50D"/>
<path d="M718.826 366.987C705.213 366.987 693.79 364.718 684.558 360.18C675.326 355.486 668.362 348.366 663.668 338.821C658.974 329.276 656.627 317.149 656.627 302.44C656.627 287.574 658.974 275.447 663.668 266.059C668.362 256.514 675.247 249.472 684.323 244.934C693.555 240.24 704.822 237.893 718.122 237.893C730.641 237.893 741.203 240.162 749.809 244.7C758.415 249.081 764.909 255.966 769.29 265.355C773.672 274.587 775.863 286.557 775.863 301.266V309.716H689.722C690.035 316.914 691.13 323.017 693.008 328.024C695.042 333.031 698.093 336.787 702.162 339.29C706.386 341.637 711.941 342.811 718.826 342.811C722.582 342.811 725.946 342.342 728.919 341.403C732.049 340.464 734.709 339.056 736.9 337.178C739.09 335.3 740.812 332.953 742.063 330.136C743.315 327.32 743.941 324.112 743.941 320.513H775.863C775.863 328.337 774.454 335.144 771.638 340.933C768.821 346.723 764.909 351.574 759.902 355.486C754.895 359.241 748.87 362.136 741.829 364.17C734.944 366.048 727.276 366.987 718.826 366.987ZM690.191 289.061H742.298C742.298 284.367 741.672 280.298 740.42 276.856C739.325 273.413 737.76 270.597 735.726 268.406C733.692 266.215 731.188 264.65 728.215 263.712C725.399 262.616 722.191 262.069 718.592 262.069C712.646 262.069 707.638 263.086 703.57 265.12C699.658 266.998 696.607 269.971 694.416 274.039C692.382 277.951 690.973 282.958 690.191 289.061Z" fill="#0EB50D"/>
</g>
</g>
<defs>
<clipPath id="clip0_11_25">
<rect width="388" height="375" fill="white"/>
</clipPath>
<clipPath id="clip1_11_25">
<rect width="146" height="164" fill="white" transform="translate(192 203)"/>
</clipPath>
</defs>
</svg>
