<svg width="778" height="376" viewBox="0 0 778 376" fill="none" xmlns="http://www.w3.org/2000/svg">
<path d="M135.694 207.016V375.514C27.6771 336.235 0.672668 254.999 0.672668 190.278C0.672668 29.5914 141.274 1.69379 189.257 0.577909C227.643 -0.314796 253.606 8.38908 261.789 12.8526C207.111 67.5308 92.6214 182.243 72.0891 203.668C65.3936 225.987 82.1319 231.566 93.2909 227.102L279.643 39.6338C304.193 63.8112 357.978 117.076 376.725 136.715L387.884 171.308L279.643 65.2996L135.694 207.016Z" fill="#22C55E"/>
<path d="M415.208 209.211L389 136.716H406.014L421.654 183.003C421.936 183.778 422.253 184.729 422.605 185.856C422.958 186.913 423.31 187.97 423.662 189.026C424.014 190.083 424.296 191.034 424.508 191.88H425.142C425.424 191.105 425.705 190.224 425.987 189.238C426.339 188.181 426.656 187.124 426.938 186.067C427.291 185.011 427.608 184.024 427.889 183.108L443.53 136.716H459.91L433.596 209.211H415.208Z" fill="#152137"/>
<path d="M487.659 210.479C481.529 210.479 476.386 209.457 472.23 207.414C468.073 205.301 464.938 202.095 462.824 197.798C460.711 193.5 459.654 188.04 459.654 181.418C459.654 174.725 460.711 169.265 462.824 165.038C464.938 160.74 468.038 157.57 472.124 155.526C476.281 153.413 481.353 152.356 487.342 152.356C492.978 152.356 497.733 153.378 501.608 155.421C505.483 157.393 508.407 160.493 510.379 164.72C512.352 168.877 513.338 174.267 513.338 180.889V184.694H474.554C474.695 187.934 475.189 190.682 476.034 192.936C476.95 195.191 478.324 196.882 480.155 198.009C482.058 199.066 484.559 199.594 487.659 199.594C489.349 199.594 490.864 199.383 492.203 198.96C493.612 198.537 494.809 197.903 495.796 197.058C496.782 196.213 497.557 195.156 498.121 193.888C498.684 192.619 498.966 191.175 498.966 189.555H513.338C513.338 193.077 512.704 196.142 511.436 198.749C510.168 201.355 508.407 203.54 506.152 205.301C503.898 206.992 501.185 208.295 498.015 209.211C494.915 210.056 491.463 210.479 487.659 210.479ZM474.766 175.394H498.226C498.226 173.28 497.945 171.449 497.381 169.899C496.888 168.349 496.183 167.081 495.267 166.094C494.352 165.108 493.224 164.403 491.886 163.981C490.618 163.488 489.173 163.241 487.553 163.241C484.876 163.241 482.621 163.699 480.789 164.615C479.028 165.46 477.654 166.799 476.668 168.631C475.752 170.392 475.118 172.646 474.766 175.394Z" fill="#152137"/>
<path d="M524.116 209.211V153.624H536.269L537.431 161.233H538.171C539.439 159.401 540.954 157.816 542.715 156.478C544.547 155.139 546.59 154.117 548.845 153.413C551.099 152.708 553.565 152.356 556.242 152.356C559.906 152.356 563.111 153.025 565.859 154.364C568.606 155.703 570.72 157.816 572.199 160.705C573.749 163.593 574.524 167.362 574.524 172.012V209.211H559.835V174.337C559.835 172.576 559.624 171.096 559.201 169.899C558.778 168.631 558.144 167.609 557.299 166.834C556.524 165.989 555.537 165.39 554.34 165.038C553.142 164.685 551.804 164.509 550.324 164.509C548.14 164.509 546.167 165.038 544.406 166.094C542.645 167.151 541.271 168.595 540.285 170.427C539.298 172.259 538.805 174.372 538.805 176.768V209.211H524.116Z" fill="#152137"/>
<path d="M604.279 210.479C600.757 210.479 597.903 209.845 595.719 208.577C593.535 207.309 591.95 205.618 590.964 203.504C589.978 201.32 589.484 198.925 589.484 196.318V164.932H582.615V153.624H590.013L592.76 137.773H604.174V153.624H614.319V164.932H604.174V193.888C604.174 195.578 604.561 196.882 605.336 197.798C606.111 198.643 607.379 199.066 609.141 199.066H614.319V208.788C613.473 209.07 612.487 209.317 611.36 209.528C610.233 209.81 609.035 210.021 607.767 210.162C606.499 210.373 605.336 210.479 604.279 210.479Z" fill="#152137"/>
<path d="M641.774 210.479C636.137 210.479 631.664 208.929 628.352 205.829C625.041 202.729 623.386 197.727 623.386 190.823V153.624H638.075V188.392C638.075 190.224 638.286 191.774 638.709 193.042C639.132 194.24 639.73 195.226 640.505 196.001C641.351 196.776 642.372 197.34 643.57 197.692C644.768 198.044 646.106 198.22 647.586 198.22C649.77 198.22 651.743 197.692 653.504 196.635C655.265 195.578 656.639 194.134 657.625 192.302C658.612 190.4 659.105 188.287 659.105 185.962V153.624H673.794V209.211H661.747L660.69 201.602H659.95C658.612 203.363 657.026 204.913 655.195 206.252C653.433 207.59 651.426 208.612 649.171 209.317C646.917 210.092 644.451 210.479 641.774 210.479Z" fill="#152137"/>
<path d="M687.277 209.211V153.624H699.43L700.593 162.29H701.332C702.037 160.458 702.953 158.803 704.08 157.323C705.207 155.773 706.616 154.54 708.307 153.624C709.998 152.708 711.971 152.25 714.225 152.25C715.423 152.25 716.515 152.391 717.501 152.673C718.487 152.885 719.227 153.096 719.72 153.307V166.623H715.176C712.992 166.623 711.055 166.94 709.364 167.574C707.743 168.137 706.37 169.053 705.242 170.321C704.115 171.59 703.27 173.139 702.706 174.971C702.213 176.803 701.966 178.952 701.966 181.418V209.211H687.277Z" fill="#152137"/>
<path d="M751.647 210.479C745.518 210.479 740.375 209.457 736.218 207.414C732.062 205.301 728.927 202.095 726.813 197.798C724.699 193.5 723.643 188.04 723.643 181.418C723.643 174.725 724.699 169.265 726.813 165.038C728.927 160.74 732.027 157.57 736.113 155.526C740.269 153.413 745.342 152.356 751.33 152.356C756.967 152.356 761.722 153.378 765.597 155.421C769.472 157.393 772.396 160.493 774.368 164.72C776.341 168.877 777.327 174.267 777.327 180.889V184.694H738.543C738.684 187.934 739.177 190.682 740.023 192.936C740.939 195.191 742.313 196.882 744.144 198.009C746.046 199.066 748.548 199.594 751.647 199.594C753.338 199.594 754.853 199.383 756.192 198.96C757.601 198.537 758.798 197.903 759.785 197.058C760.771 196.213 761.546 195.156 762.11 193.888C762.673 192.619 762.955 191.175 762.955 189.555H777.327C777.327 193.077 776.693 196.142 775.425 198.749C774.157 201.355 772.396 203.54 770.141 205.301C767.887 206.992 765.174 208.295 762.004 209.211C758.904 210.056 755.452 210.479 751.647 210.479ZM738.755 175.394H762.215C762.215 173.28 761.933 171.449 761.37 169.899C760.877 168.349 760.172 167.081 759.256 166.094C758.34 165.108 757.213 164.403 755.875 163.981C754.606 163.488 753.162 163.241 751.542 163.241C748.865 163.241 746.61 163.699 744.778 164.615C743.017 165.46 741.643 166.799 740.657 168.631C739.741 170.392 739.107 172.646 738.755 175.394Z" fill="#152137"/>
<path d="M192.604 364.684V203.669H227.577V267.512H298.931V203.669H333.904V364.684H298.931V297.086H227.577V364.684H192.604Z" fill="#22C55E"/>
<path d="M404.766 367.501C391.309 367.501 379.886 365.232 370.498 360.694C361.109 356 353.989 348.88 349.138 339.335C344.287 329.633 341.862 317.506 341.862 302.954C341.862 288.089 344.287 275.962 349.138 266.573C353.989 257.028 361.109 249.986 370.498 245.448C379.886 240.754 391.309 238.407 404.766 238.407C418.536 238.407 430.037 240.754 439.269 245.448C448.658 249.986 455.778 257.028 460.629 266.573C465.48 275.962 467.905 288.089 467.905 302.954C467.905 317.506 465.48 329.633 460.629 339.335C455.778 348.88 448.658 356 439.269 360.694C430.037 365.232 418.536 367.501 404.766 367.501ZM404.766 342.152C411.964 342.152 417.676 340.821 421.9 338.161C426.282 335.501 429.49 331.433 431.524 325.956C433.558 320.479 434.575 313.751 434.575 305.771V300.137C434.575 292.157 433.558 285.428 431.524 279.952C429.49 274.475 426.282 270.407 421.9 267.746C417.676 264.93 411.964 263.522 404.766 263.522C397.725 263.522 392.013 264.93 387.632 267.746C383.407 270.407 380.277 274.475 378.243 279.952C376.209 285.428 375.192 292.157 375.192 300.137V305.771C375.192 313.751 376.209 320.479 378.243 325.956C380.277 331.433 383.407 335.501 387.632 338.161C392.013 340.821 397.725 342.152 404.766 342.152Z" fill="#22C55E"/>
<path d="M473.135 364.684V241.224H500.127L502.709 258.123H504.352C507.012 254.055 510.142 250.534 513.741 247.561C517.496 244.588 521.643 242.319 526.181 240.754C530.875 239.189 535.882 238.407 541.202 238.407C549.026 238.407 555.755 239.972 561.388 243.101C567.178 246.231 571.637 251.238 574.767 258.123H576.41C579.07 254.055 582.278 250.534 586.033 247.561C589.789 244.588 594.092 242.319 598.943 240.754C603.794 239.189 608.957 238.407 614.434 238.407C622.258 238.407 628.987 239.815 634.62 242.632C640.409 245.448 644.947 250.065 648.233 256.48C651.519 262.739 653.162 270.876 653.162 280.891V364.684H620.537V286.759C620.537 282.847 620.067 279.561 619.128 276.9C618.346 274.084 617.172 271.893 615.608 270.328C614.043 268.607 612.087 267.355 609.74 266.573C607.393 265.791 604.889 265.399 602.229 265.399C597.847 265.399 593.935 266.573 590.493 268.92C587.05 271.267 584.312 274.475 582.278 278.543C580.4 282.612 579.461 287.306 579.461 292.626V364.684H546.836V286.759C546.836 282.847 546.366 279.561 545.427 276.9C544.645 274.084 543.471 271.893 541.907 270.328C540.342 268.607 538.386 267.355 536.039 266.573C533.848 265.791 531.344 265.399 528.528 265.399C524.303 265.399 520.391 266.573 516.792 268.92C513.349 271.267 510.611 274.475 508.577 278.543C506.699 282.612 505.76 287.306 505.76 292.626V364.684H473.135Z" fill="#22C55E"/>
<path d="M719.499 367.501C705.886 367.501 694.463 365.232 685.23 360.694C675.998 356 669.035 348.88 664.341 339.335C659.646 329.79 657.299 317.663 657.299 302.954C657.299 288.089 659.646 275.962 664.341 266.573C669.035 257.028 675.92 249.986 684.996 245.448C694.228 240.754 705.494 238.407 718.795 238.407C731.313 238.407 741.875 240.676 750.482 245.214C759.088 249.595 765.582 256.48 769.963 265.869C774.345 275.101 776.535 287.071 776.535 301.78V310.23H690.394C690.707 317.428 691.803 323.531 693.68 328.538C695.714 333.545 698.766 337.301 702.834 339.804C707.059 342.152 712.614 343.325 719.499 343.325C723.255 343.325 726.619 342.856 729.592 341.917C732.721 340.978 735.382 339.57 737.572 337.692C739.763 335.814 741.484 333.467 742.736 330.65C743.988 327.834 744.614 324.626 744.614 321.027H776.535C776.535 328.851 775.127 335.658 772.31 341.447C769.494 347.237 765.582 352.088 760.574 356C755.567 359.755 749.543 362.65 742.501 364.684C735.616 366.562 727.949 367.501 719.499 367.501ZM690.864 289.575H742.971C742.971 284.881 742.345 280.812 741.093 277.37C739.998 273.927 738.433 271.111 736.399 268.92C734.364 266.729 731.861 265.165 728.888 264.226C726.071 263.13 722.863 262.583 719.264 262.583C713.318 262.583 708.311 263.6 704.243 265.634C700.331 267.512 697.279 270.485 695.089 274.553C693.054 278.465 691.646 283.472 690.864 289.575Z" fill="#22C55E"/>
</svg>
